<svg width="300" height="117" viewBox="0 0 300 117" fill="none" xmlns="http://www.w3.org/2000/svg">
<path d="M174.976 41.0561C174.272 39.8118 173.318 38.7267 172.138 37.8301C170.971 36.9428 169.65 36.245 168.212 35.7564C166.778 35.2703 165.285 34.9958 163.771 34.9419C163.718 34.932 163.665 34.9454 163.617 34.9597C163.506 34.9538 163.394 34.9463 163.279 34.9404H162.885C162.611 34.9404 162.39 35.1625 162.39 35.4355V35.5932C162.39 35.8637 162.607 36.0833 162.877 36.0883C163.713 36.1001 164.261 36.157 164.613 36.2213L165.142 36.3875C165.892 36.8281 166.255 37.568 166.255 38.6436C166.255 39.6861 165.938 41.1179 165.312 42.8943L163.204 48.7459C162.247 48.2993 161.307 47.7805 160.404 47.1959C159.237 46.4407 158.057 45.6875 156.864 44.9319C155.646 44.1618 154.349 43.5026 153.009 42.9705C151.36 42.3152 149.422 42.0748 147.517 42.1703C147.295 41.5219 147.104 40.9453 146.947 40.4433C146.511 39.0407 146.446 38.5497 146.446 38.3815C146.446 37.4918 146.828 36.8791 147.609 36.4735C148.195 36.2342 149.126 36.1051 150.375 36.0883C150.645 36.0833 150.862 35.8637 150.862 35.5932V35.435C150.862 35.162 150.64 34.9399 150.367 34.9399H138.376C138.103 34.9399 137.881 35.162 137.881 35.435V35.5927C137.881 35.8598 138.094 36.0784 138.361 36.0868C139.338 36.1179 140.189 36.4043 140.858 36.9072C141.742 37.7089 142.69 39.3879 143.671 41.8909L143.977 42.7128C142.662 43.0679 141.438 43.5867 140.315 44.2687C137.997 45.6762 136.164 47.6143 134.864 50.0317C133.569 52.4422 132.912 55.1929 132.912 58.2081C132.912 60.1226 133.207 62.1023 133.787 64.0919C134.367 66.0819 135.239 68.0137 136.38 69.8311C137.524 71.6536 138.964 73.3024 140.661 74.7297C142.362 76.1624 144.362 77.3187 146.603 78.1668C148.852 79.0185 151.382 79.4507 154.127 79.4507C157.473 79.4507 160.392 79.0699 162.806 78.3221C165.234 77.5699 167.246 76.5249 168.791 75.2163C170.343 73.8998 171.503 72.3717 172.239 70.6724C172.972 68.977 173.344 67.1734 173.344 65.3065C173.344 63.6581 173.004 62.2941 172.331 61.2526C171.662 60.2146 170.791 59.4371 169.748 58.944C167.902 58.0726 165.811 57.9965 164.016 58.6498C163.209 58.9455 162.509 59.3748 161.935 59.9287C161.74 60.1171 161.734 60.4277 161.919 60.624C162.105 60.8199 162.417 60.8352 162.613 60.6483C163.682 59.6661 165.265 59.5909 166.84 60.4554C167.558 60.8501 168.167 61.4341 168.645 62.1923C169.117 62.939 169.356 63.8906 169.356 65.0177C169.356 67.439 168.788 69.5992 167.668 71.4399C166.551 73.2742 164.89 74.7336 162.734 75.7752C160.56 76.8241 157.848 77.3553 154.679 77.3553C152.268 77.3553 150.066 76.9522 148.135 76.1565C146.201 75.3602 144.482 74.2693 143.025 72.9132C141.561 71.5502 140.322 69.9884 139.345 68.2698C138.364 66.5488 137.614 64.7264 137.118 62.853C136.623 60.9865 136.373 59.1394 136.373 57.3649C136.373 55.8442 136.631 54.2764 137.137 52.7057C137.643 51.136 138.401 49.6816 139.387 48.3829C140.367 47.0936 141.59 46.0313 143.023 45.2276C143.532 44.9418 144.074 44.7064 144.646 44.5219L155.347 73.3667C155.419 73.5625 155.614 73.6882 155.813 73.6906C156.02 73.6891 156.205 73.5576 156.276 73.3622L164.244 51.143C165.511 51.5342 166.962 51.7335 168.562 51.7335C170.239 51.7335 171.649 51.4095 172.754 50.7725C173.861 50.1351 174.699 49.3111 175.24 48.321C175.779 47.3398 176.052 46.331 176.052 45.3221C176.054 43.7548 175.691 42.3196 174.976 41.0561ZM168.778 38.1318C169.12 38.3405 169.459 38.5783 169.793 38.8464C170.749 39.6105 171.554 40.5541 172.186 41.6515C172.805 42.7276 173.118 43.9106 173.118 45.1658C173.118 46.1049 172.953 46.9368 172.626 47.6391C172.311 48.3136 171.786 48.8314 171.022 49.2216C170.236 49.6222 169.144 49.825 167.776 49.825C166.759 49.825 165.786 49.685 164.868 49.4086L167.845 41.1055C168.313 39.8563 168.619 38.8785 168.778 38.1318ZM148.172 44.0308C149.827 44.0491 151.297 44.3023 152.543 44.784C153.865 45.2959 155.104 45.9259 156.226 46.6574C157.382 47.4101 158.537 48.1697 159.694 48.9298C160.587 49.5188 161.552 50.0441 162.573 50.4981L156.621 67.0176L148.492 44.917C148.382 44.6119 148.274 44.3157 148.172 44.0308Z" fill="#86786F"/>
<path d="M190.102 72.6763C188.725 72.6249 187.619 72.3915 186.814 71.981C186.031 71.5819 185.482 71.0062 185.132 70.2214C184.769 69.4044 184.585 68.3351 184.585 67.0429V41.7999C184.585 40.5215 184.793 39.4967 185.205 38.752C185.62 38.0042 186.126 37.4355 186.71 37.0626C187.312 36.6763 187.924 36.4157 188.531 36.2886C189.158 36.1546 189.68 36.0883 190.085 36.0883C190.358 36.0883 190.58 35.8662 190.58 35.5937V35.4355C190.58 35.1625 190.358 34.9404 190.085 34.9404H176.097C175.824 34.9404 175.602 35.1625 175.602 35.4355V35.5937C175.602 35.7278 175.657 35.8554 175.752 35.9498C175.849 36.0413 175.971 36.0917 176.113 36.0873C176.562 36.0809 177.099 36.1343 177.71 36.2742C178.303 36.4083 178.902 36.6753 179.49 37.0695C180.058 37.4523 180.548 38.0245 180.945 38.7702C181.343 39.52 181.545 40.5388 181.545 41.7999V67.0429C181.545 68.4345 181.356 69.5468 180.985 70.346C180.63 71.1121 180.079 71.661 179.304 72.0245C178.494 72.4073 177.409 72.6254 176.078 72.6763C175.812 72.6862 175.602 72.931 175.602 73.1966C175.602 73.4696 175.824 73.6916 176.097 73.6916H190.086C190.359 73.6916 190.581 73.4429 190.581 73.1699C190.579 72.9043 190.367 72.6857 190.102 72.6763Z" fill="#86786F"/>
<path d="M231.065 64.3406C229.786 67.672 228.005 69.8791 225.774 70.9039C224.214 71.6076 221.15 71.9647 216.669 71.9647C214.322 71.9647 212.765 71.8178 212.085 71.5488C211.784 71.392 211.558 71.1244 211.393 70.7303C211.209 70.2946 211.116 69.7609 211.116 69.1462V67.1635C212.987 66.9148 214.671 66.4732 216.148 65.8421C218.623 64.8134 220.56 63.3614 221.907 61.5242C223.243 59.6928 223.921 57.5682 223.921 55.2102C223.921 53.6652 223.604 52.3823 222.974 51.3903C222.33 50.4066 221.512 49.6677 220.535 49.1875C219.576 48.7375 218.559 48.5095 217.511 48.5095C215.973 48.5095 214.605 48.9773 213.436 49.9022C213.34 49.9758 213.244 50.054 213.152 50.1386C212.954 50.322 212.938 50.6311 213.119 50.8324C213.3 51.0357 213.608 51.0525 213.813 50.8749C213.887 50.8097 213.963 50.7459 214.039 50.6855C215.036 49.9338 216.494 49.9575 217.772 50.6732C218.434 51.0367 219.002 51.5831 219.457 52.2908C219.897 52.9941 220.118 53.8887 220.118 54.9471C220.118 57.2018 219.581 59.1345 218.521 60.6898C217.457 62.2541 215.987 63.4707 214.151 64.3065C213.217 64.7308 212.201 65.0498 211.116 65.2625V41.5358C211.116 39.2767 211.625 37.6857 212.598 36.8326C212.939 36.5804 213.42 36.3934 214.028 36.2762C214.68 36.1506 215.373 36.0878 216.091 36.0878C216.363 36.0878 216.586 35.8657 216.586 35.5928V35.435C216.586 35.162 216.363 34.9399 216.091 34.9399H203.153C203.074 34.9399 203 34.9592 202.933 34.9919C200.423 35.1778 198.162 35.8732 196.192 37.0631C193.863 38.4715 192.025 40.4112 190.727 42.8276C189.432 45.238 188.774 47.9887 188.774 51.0025C188.774 54.2067 189.599 57.0771 191.223 59.5306C192.842 61.9955 195.073 63.9455 197.858 65.3288C200.629 66.7061 203.8 67.4049 207.283 67.4049C207.474 67.4049 207.665 67.4024 207.854 67.3999C207.789 69.0864 207.421 70.3406 206.758 71.1309C206.034 71.9948 204.806 72.5057 203.111 72.6506C202.855 72.6724 202.658 72.9389 202.658 73.1961C202.658 73.4686 202.881 73.6912 203.153 73.6912H229.554C229.784 73.6912 229.983 73.5329 230.036 73.3099L232.086 64.6319C232.121 64.4841 232.047 64.3303 231.954 64.2116C231.731 63.9331 231.191 64.0098 231.065 64.3406ZM194.197 58.0727C192.895 55.7384 192.235 53.0757 192.235 50.1608C192.235 48.643 192.493 47.0748 193.001 45.5011C193.506 43.9334 194.266 42.4789 195.261 41.1787C196.251 39.8884 197.476 38.8261 198.899 38.0225C200.307 37.2273 201.853 36.8242 203.494 36.8242C204.479 36.8242 205.393 36.8385 206.228 36.8677C206.288 36.9063 206.345 36.9473 206.4 36.9884C207.372 37.8499 207.865 39.3805 207.865 41.5358V65.575C204.794 65.5681 202.012 64.9227 199.643 63.5657C197.329 62.2151 195.496 60.3664 194.197 58.0727Z" fill="#86786F"/>
<path d="M293.656 72.648C293.483 72.648 293.128 72.606 292.425 72.4047C291.912 72.2598 291.361 71.8434 290.786 71.1673C290.188 70.4616 289.557 69.2376 288.913 67.5284L276.371 34.1555C276.317 34.0101 276.195 33.8988 276.045 33.8553C275.892 33.8132 275.732 33.8419 275.609 33.9374L274.161 35.0417C274.005 35.1614 273.934 35.3617 273.981 35.5511C274.027 35.7415 274.181 35.8879 274.375 35.9215C274.377 35.923 274.572 35.964 274.855 36.5758C275.066 37.0357 275.067 37.5763 274.865 38.2113L269.813 51.9861C267.17 51.1102 264.372 50.6656 261.499 50.6656C258.303 50.6656 255.48 51.3793 253.108 52.7863C250.735 54.1938 248.868 56.1334 247.562 58.5513C246.256 60.9607 245.594 63.711 245.594 66.7268C245.594 68.5779 245.902 70.3034 246.447 71.9181L245.777 71.9131C245.161 71.929 244.541 71.8795 243.908 71.7638C243.304 71.652 242.768 71.4319 242.271 71.0917C241.795 70.7668 241.401 70.2682 241.1 69.6105C240.789 68.9349 240.632 67.9819 240.632 66.7802V41.5362C240.632 40.2909 240.825 39.2988 241.205 38.5877C241.585 37.8755 242.047 37.3399 242.578 36.9932C243.127 36.6352 243.686 36.3933 244.238 36.2741C244.817 36.151 245.277 36.0882 245.608 36.0882C245.739 36.0882 245.865 36.0353 245.958 35.9433C246.049 35.8503 246.102 35.7247 246.102 35.5931V35.4349C246.102 35.1624 245.88 34.9403 245.608 34.9403H232.67C232.397 34.9403 232.175 35.1624 232.175 35.4349V35.5931C232.175 35.7286 232.231 35.8577 232.329 35.9507C232.426 36.0447 232.561 36.106 232.692 36.0867C233.04 36.0788 233.463 36.1302 233.984 36.2583C234.489 36.3815 235.006 36.6337 235.521 37.0066C236.024 37.3701 236.465 37.9165 236.83 38.6312C237.197 39.3483 237.381 40.326 237.381 41.5362V66.8331C237.381 68.8073 237.008 70.2539 236.274 71.1307C235.551 71.9947 234.324 72.5051 232.628 72.65C232.371 72.6718 232.175 72.9388 232.175 73.1955C232.175 73.469 232.397 73.6906 232.67 73.6906H247.167C247.432 74.2301 247.71 74.7632 248.043 75.2682C249.664 77.7256 251.896 79.6727 254.677 81.0545C257.453 82.4328 260.623 83.1316 264.101 83.1316C266.667 83.1316 269.004 82.7715 271.047 82.0633C273.095 81.3532 274.857 80.4056 276.285 79.2474C277.723 78.0792 278.836 76.7528 279.593 75.3053C280.355 73.8488 280.741 72.3686 280.741 70.9067C280.741 69.4681 280.417 68.2376 279.781 67.248C279.147 66.2668 278.333 65.5106 277.36 65.0008C276.389 64.4924 275.371 64.2337 274.331 64.2337C272.798 64.2337 271.435 64.6981 270.27 65.6155C270.168 65.6926 270.069 65.7762 269.972 65.8662C269.772 66.0477 269.757 66.3583 269.938 66.5591C270.119 66.7584 270.429 66.7757 270.632 66.6001C270.71 66.5319 270.79 66.4656 270.87 66.4018C271.849 65.6669 273.272 65.6773 274.59 66.3979C275.25 66.7609 275.815 67.3059 276.264 68.016C276.711 68.7213 276.937 69.6144 276.937 70.6703C276.937 72.9166 276.342 74.8429 275.169 76.3953C273.984 77.965 272.38 79.1771 270.405 79.9971C268.406 80.826 266.168 81.2453 263.757 81.2453C260.726 81.2453 258.079 80.5752 255.889 79.2523C253.7 77.9318 251.997 76.0966 250.828 73.7989C250.81 73.7638 250.799 73.7252 250.781 73.6896H259.07C259.205 73.6896 259.317 73.6243 259.407 73.5338C259.498 73.6277 259.622 73.6896 259.762 73.6896H268.597C268.87 73.6896 269.092 73.4146 269.092 73.1421C269.092 72.8696 268.87 72.647 268.597 72.647C267.854 72.647 267.198 72.5313 266.64 72.3033C266.157 72.1055 265.815 71.6772 265.597 70.9928C265.369 70.2796 265.519 69.1649 266.038 67.6837L270.693 54.7314C273.483 55.7783 276.12 57.1918 278.537 58.9365C280.752 60.5384 282.724 62.3524 284.408 64.3376L285.069 66.2436C285.374 67.0571 285.607 67.7984 285.76 68.4453C285.909 69.0739 285.984 69.6105 285.984 70.0309C285.969 70.8261 285.79 71.4018 285.454 71.745C285.092 72.1144 284.654 72.3498 284.117 72.4631C283.522 72.5862 282.9 72.6475 282.271 72.6475C281.999 72.6475 281.777 72.923 281.777 73.195C281.777 73.4685 281.999 73.6901 282.271 73.6901H293.656C293.93 73.6901 294.151 73.4151 294.151 73.1426C294.151 72.8706 293.93 72.648 293.656 72.648ZM282.894 59.9825C282.78 59.8628 282.664 59.7422 282.544 59.622C281.068 58.1279 279.223 56.6873 277.063 55.3431C275.354 54.2798 273.479 53.353 271.469 52.5796L275.969 40.0545L282.894 59.9825ZM259.701 72.6787L261.604 64.6318C261.637 64.4844 261.564 64.3301 261.47 64.211C261.251 63.9315 260.702 64.0126 260.577 64.3474C260.27 65.1902 259.899 66.0744 259.477 66.979C259.066 67.8593 258.551 68.6891 257.947 69.4418C257.359 70.1792 256.629 70.792 255.778 71.2648C254.948 71.7292 253.913 71.9646 252.71 71.9646L250.039 71.9448C249.388 70.0986 249.056 68.07 249.056 65.885C249.056 64.3702 249.32 62.8311 249.843 61.3134C250.364 59.8005 251.154 58.4019 252.189 57.1566C253.217 55.9193 254.523 54.9104 256.075 54.1547C257.621 53.4025 259.464 53.0227 261.55 53.0227C264.041 53.0227 266.545 53.404 269.012 54.1582L263.819 68.2208C263.314 69.6496 262.724 70.7732 262.064 71.564C261.457 72.2949 260.704 72.6475 259.763 72.6475C259.738 72.648 259.724 72.6747 259.701 72.6787Z" fill="#86786F"/>
<path d="M137.112 98.4776V88.6187H141.883C143.061 88.6187 144.073 88.8021 144.915 89.1711C145.759 89.541 146.407 90.0885 146.862 90.8179C147.317 91.5469 147.545 92.4569 147.545 93.5484C147.545 94.6398 147.317 95.5518 146.862 96.2788C146.407 97.0073 145.759 97.5557 144.915 97.9247C144.073 98.2941 143.061 98.4776 141.883 98.4776H137.112V98.4776ZM137.945 97.7432H141.883C142.553 97.7432 143.178 97.6729 143.759 97.5285C144.338 97.3861 144.848 97.1512 145.29 96.8307C145.73 96.5098 146.074 96.0948 146.324 95.5805C146.573 95.0686 146.698 94.4435 146.698 93.7046V93.3911C146.698 92.6522 146.573 92.0271 146.324 91.5153C146.074 91.0014 145.73 90.586 145.29 90.265C144.848 89.9441 144.338 89.7096 143.759 89.5672C143.178 89.4223 142.553 89.3526 141.883 89.3526H137.945V97.7432Z" fill="#86786F"/>
<path d="M152.878 98.4776V88.6187H162.29V89.3526H153.711V93.0311H161.529V93.7625H153.711V97.7432H162.406V98.4776H152.878Z" fill="#86786F"/>
<path d="M167.723 98.4776V88.6187H168.555V97.7432H174.663V98.4776H167.723Z" fill="#86786F"/>
<path d="M188.344 98.4776V88.6187H189.522L193.373 96.0923C193.441 96.2155 193.52 96.3698 193.61 96.5508C193.702 96.7343 193.789 96.9153 193.876 97.0968C193.962 97.2803 194.04 97.4415 194.105 97.5864H194.192C194.249 97.4608 194.317 97.3159 194.393 97.1472C194.47 96.9806 194.553 96.805 194.645 96.623C194.736 96.442 194.82 96.2734 194.897 96.1205L198.748 88.6182H199.94V98.4771H199.107V91.7665C199.107 91.583 199.11 91.3679 199.114 91.1196C199.12 90.8709 199.122 90.6216 199.122 90.3783V89.7388H199.021C198.964 89.854 198.897 89.9945 198.821 90.1562C198.743 90.3204 198.665 90.4846 198.583 90.6513C198.502 90.8204 198.423 90.9698 198.346 91.1048L194.551 98.4771H193.704L189.91 91.1048C189.823 90.9307 189.737 90.7601 189.651 90.5885C189.566 90.4139 189.486 90.2551 189.414 90.1053C189.342 89.9579 189.282 89.8348 189.235 89.7388H189.135C189.135 89.9223 189.137 90.1345 189.141 90.3783C189.147 90.6216 189.149 90.8679 189.149 91.1117V91.766V98.4766H188.344V98.4776Z" fill="#86786F"/>
<path d="M204.539 98.4776L209.64 88.6187H210.675L215.776 98.4776H214.857L213.406 95.6606H206.881L205.43 98.4776H204.539ZM207.256 94.9292H213.017L211.207 91.4069C211.14 91.2818 211.063 91.1369 210.976 90.9673C210.891 90.8006 210.803 90.6226 210.711 90.4366C210.621 90.2512 210.532 90.0652 210.446 89.8837C210.358 89.7032 210.277 89.539 210.201 89.3941H210.086C209.982 89.6162 209.862 89.86 209.728 90.128C209.593 90.3956 209.468 90.6443 209.353 90.8763C209.239 91.1053 209.147 91.2818 209.08 91.4069L207.256 94.9292Z" fill="#86786F"/>
<path d="M220.376 98.4776V88.6191H227.318C227.921 88.6191 228.438 88.7393 228.869 88.9787C229.3 89.2176 229.631 89.5509 229.861 89.9782C230.091 90.4025 230.206 90.8906 230.206 91.4356C230.206 92.0874 230.038 92.6547 229.703 93.1374C229.366 93.622 228.892 93.9509 228.279 94.1225L230.464 98.4771H229.529L227.403 94.2383H221.209V98.4771H220.376V98.4776ZM221.21 93.5048H227.231C227.902 93.5048 228.426 93.311 228.805 92.9227C229.184 92.5345 229.372 92.0395 229.372 91.4356C229.372 91.0227 229.286 90.6612 229.114 90.3501C228.942 90.038 228.698 89.7947 228.382 89.6186C228.065 89.4396 227.682 89.3526 227.232 89.3526H221.21V93.5048H221.21Z" fill="#86786F"/>
<path d="M244.217 100.346L242.248 98.5787C242.057 98.598 241.861 98.6153 241.66 98.6301C241.458 98.6415 241.252 98.6494 241.042 98.6494C239.776 98.6494 238.686 98.458 237.772 98.0747C236.857 97.6934 236.156 97.1212 235.667 96.3655C235.179 95.6079 234.935 94.6687 234.935 93.5491C234.935 92.419 235.179 91.4779 235.667 90.7247C236.156 89.9739 236.857 89.4042 237.772 89.0234C238.687 88.6391 239.777 88.4487 241.042 88.4487C242.307 88.4487 243.393 88.6391 244.304 89.0234C245.214 89.4047 245.913 89.9744 246.402 90.7247C246.89 91.4779 247.134 92.419 247.134 93.5491C247.134 94.8814 246.796 95.9506 246.121 96.7617C245.445 97.5703 244.494 98.1232 243.268 98.4204L245.423 100.347H244.217V100.346ZM241.041 97.9174C241.778 97.9174 242.465 97.8403 243.095 97.688C243.728 97.5337 244.284 97.2923 244.763 96.9615C245.241 96.6306 245.616 96.1964 245.883 95.6608C246.153 95.1247 246.286 94.4729 246.286 93.7048V93.3913C246.286 92.6233 246.153 91.9719 245.883 91.4363C245.616 90.9002 245.241 90.4655 244.763 90.1352C244.284 89.8038 243.728 89.563 243.095 89.4077C242.465 89.2558 241.778 89.1787 241.041 89.1787C240.312 89.1787 239.63 89.2558 238.992 89.4077C238.355 89.5625 237.796 89.8038 237.312 90.1352C236.828 90.4655 236.453 90.9002 236.183 91.4363C235.915 91.9719 235.781 92.6233 235.781 93.3913V93.7048C235.781 94.4729 235.915 95.1247 236.183 95.6608C236.453 96.1964 236.828 96.6306 237.312 96.9615C237.796 97.2923 238.355 97.5337 238.992 97.688C239.63 97.8398 240.312 97.9174 241.041 97.9174Z" fill="#86786F"/>
<path d="M257.209 98.6487C256.087 98.6487 255.165 98.4766 254.442 98.1324C253.72 97.7867 253.182 97.2872 252.832 96.6304C252.483 95.9742 252.309 95.1918 252.309 94.2818V88.6187H253.141V94.395C253.141 95.5375 253.491 96.4084 254.191 97.0117C254.891 97.6161 255.896 97.9172 257.209 97.9172C258.521 97.9172 259.528 97.6161 260.227 97.0117C260.927 96.4084 261.277 95.5375 261.277 94.395V88.6187H262.11V94.2818C262.11 95.1918 261.935 95.9742 261.586 96.6304C261.236 97.2872 260.699 97.7867 259.976 98.1324C259.253 98.4771 258.331 98.6487 257.209 98.6487Z" fill="#86786F"/>
<path d="M267.699 98.4769V88.6185H277.113V89.3524H268.533V93.0309H276.351V93.7623H268.533V97.7425H277.227V98.4759H267.699V98.4769ZM271.68 87.8702L273.361 85.9751H274.512V86.0305L272.456 87.8702H271.68Z" fill="#86786F"/>
<path d="M286.985 98.6489C286.342 98.6489 285.717 98.6128 285.109 98.5357C284.501 98.458 283.955 98.3205 283.471 98.1178C282.987 97.9175 282.603 97.6282 282.32 97.2488C282.039 96.8695 281.897 96.3844 281.897 95.7909C281.897 95.7132 281.9 95.6485 281.905 95.5955C281.909 95.5441 281.912 95.508 281.912 95.4887H282.76C282.75 95.5466 282.743 95.6094 282.739 95.6821C282.733 95.7543 282.731 95.8488 282.731 95.9615C282.731 96.3745 282.898 96.7271 283.234 97.0194C283.57 97.3116 284.056 97.5337 284.693 97.688C285.33 97.8403 286.089 97.9175 286.971 97.9175C287.401 97.9175 287.819 97.8957 288.221 97.8522C288.622 97.8087 288.994 97.7365 289.335 97.6376C289.674 97.5362 289.971 97.4051 290.226 97.2488C290.479 97.0896 290.678 96.8987 290.822 96.6742C290.966 96.4496 291.038 96.1865 291.038 95.8898C291.038 95.4793 290.915 95.146 290.671 94.8923C290.428 94.6391 290.094 94.4338 289.672 94.282C289.25 94.1272 288.779 94.0041 288.257 93.9081C287.735 93.8112 287.199 93.7222 286.647 93.6426C286.097 93.5605 285.559 93.4615 285.038 93.3473C284.516 93.2321 284.044 93.0822 283.622 92.8938C283.2 92.7078 282.868 92.4616 282.623 92.1554C282.379 91.8488 282.257 91.4556 282.257 90.9744C282.257 90.6584 282.333 90.3518 282.486 90.0556C282.64 89.7578 282.896 89.4883 283.256 89.2435C283.616 89.0002 284.1 88.8043 284.708 88.6619C285.316 88.517 286.08 88.4473 287 88.4473C287.939 88.4473 288.701 88.5294 289.285 88.698C289.869 88.8647 290.319 89.0813 290.635 89.3449C290.952 89.6085 291.167 89.8859 291.282 90.1787C291.397 90.4705 291.455 90.7361 291.455 90.9744V91.2914H290.621V90.9314C290.621 90.6342 290.494 90.3543 290.241 90.0912C289.985 89.8286 289.601 89.6109 289.082 89.4374C288.566 89.2653 287.909 89.1792 287.115 89.1792C286.253 89.1792 285.524 89.2465 284.93 89.382C284.336 89.5145 283.884 89.7104 283.572 89.971C283.261 90.2287 283.105 90.5551 283.105 90.9462C283.105 91.3008 283.227 91.5906 283.472 91.8176C283.716 92.0422 284.049 92.2232 284.47 92.3636C284.892 92.5006 285.364 92.6168 285.886 92.7083C286.409 92.7978 286.945 92.8869 287.496 92.9739C288.047 93.061 288.582 93.1618 289.105 93.2825C289.628 93.4037 290.1 93.5629 290.521 93.7637C290.942 93.966 291.275 94.2271 291.519 94.5481C291.764 94.8685 291.885 95.2677 291.885 95.7479C291.885 96.4768 291.679 97.0535 291.268 97.4788C290.856 97.9061 290.28 98.2078 289.543 98.3838C288.805 98.5614 287.953 98.6489 286.985 98.6489Z" fill="#86786F"/>
<path d="M164.854 110.65V105.428H165.28V107.788H169.093V105.428H169.52V110.65H169.093V108.168H165.28V110.65H164.854Z" fill="#757875"/>
<path d="M175.037 110.74C174.438 110.74 173.923 110.639 173.489 110.436C173.055 110.233 172.721 109.931 172.488 109.53C172.254 109.13 172.138 108.633 172.138 108.038C172.138 107.44 172.254 106.941 172.488 106.543C172.722 106.145 173.055 105.844 173.489 105.641C173.923 105.438 174.438 105.337 175.037 105.337C175.647 105.337 176.168 105.438 176.602 105.641C177.035 105.844 177.368 106.145 177.599 106.543C177.83 106.942 177.945 107.44 177.945 108.038C177.945 108.632 177.83 109.13 177.599 109.53C177.368 109.931 177.035 110.233 176.602 110.436C176.168 110.639 175.647 110.74 175.037 110.74ZM175.045 110.36C175.395 110.36 175.719 110.321 176.019 110.242C176.318 110.164 176.58 110.034 176.803 109.854C177.027 109.674 177.199 109.442 177.321 109.157C177.443 108.873 177.504 108.526 177.504 108.115V107.956C177.504 107.55 177.443 107.203 177.321 106.917C177.199 106.63 177.027 106.397 176.803 106.22C176.58 106.043 176.319 105.913 176.019 105.832C175.72 105.751 175.395 105.71 175.045 105.71C174.695 105.71 174.371 105.751 174.07 105.832C173.772 105.913 173.51 106.043 173.287 106.22C173.063 106.397 172.89 106.63 172.765 106.917C172.641 107.203 172.579 107.549 172.579 107.956V108.115C172.579 108.526 172.641 108.873 172.765 109.157C172.89 109.442 173.063 109.674 173.287 109.854C173.51 110.034 173.771 110.164 174.07 110.242C174.371 110.321 174.695 110.36 175.045 110.36Z" fill="#757875"/>
<path d="M181.918 110.65V105.801H179.741V105.428H184.528V105.801H182.344V110.65H181.918Z" fill="#757875"/>
<path d="M186.736 110.65V105.428H191.212V105.801H187.162V107.772H190.839V108.153H187.162V110.268H191.264V110.65H186.736Z" fill="#757875"/>
<path d="M193.876 110.65V105.428H194.301V110.268H197.209V110.65H193.876Z" fill="#757875"/>
<path d="M204.508 107.734H202.339V108.228H204.508V107.734Z" fill="#757875"/>
<path d="M210.285 110.65V105.428H213.268C213.593 105.428 213.863 105.475 214.079 105.569C214.294 105.663 214.458 105.801 214.57 105.984C214.681 106.167 214.738 106.387 214.738 106.646C214.738 106.849 214.702 107.036 214.631 107.206C214.559 107.375 214.458 107.52 214.327 107.639C214.195 107.759 214.037 107.848 213.854 107.909V107.941C214.053 107.975 214.23 108.046 214.387 108.15C214.545 108.254 214.669 108.397 214.76 108.58C214.851 108.763 214.897 108.996 214.897 109.28C214.897 109.615 214.826 109.883 214.684 110.083C214.541 110.283 214.348 110.428 214.105 110.517C213.862 110.606 213.587 110.65 213.283 110.65H210.285V110.65ZM210.711 107.78H213.154C213.352 107.78 213.539 107.74 213.713 107.658C213.889 107.578 214.031 107.458 214.14 107.301C214.249 107.143 214.304 106.948 214.304 106.714C214.304 106.4 214.212 106.169 214.029 106.022C213.847 105.874 213.604 105.801 213.298 105.801H210.711V107.78H210.711ZM210.711 110.269H213.353C213.688 110.269 213.957 110.19 214.159 110.032C214.362 109.876 214.464 109.609 214.464 109.233C214.464 108.98 214.416 108.774 214.323 108.617C214.229 108.46 214.096 108.344 213.923 108.271C213.751 108.198 213.55 108.16 213.322 108.16H210.711V110.269V110.269Z" fill="#757875"/>
<path d="M220.042 110.74C219.443 110.74 218.927 110.639 218.494 110.436C218.06 110.233 217.726 109.931 217.493 109.53C217.259 109.13 217.143 108.633 217.143 108.038C217.143 107.44 217.259 106.941 217.493 106.543C217.727 106.145 218.06 105.844 218.494 105.641C218.927 105.438 219.443 105.337 220.042 105.337C220.651 105.337 221.173 105.438 221.606 105.641C222.04 105.844 222.372 106.145 222.604 106.543C222.835 106.942 222.95 107.44 222.95 108.038C222.95 108.632 222.835 109.13 222.604 109.53C222.372 109.931 222.04 110.233 221.606 110.436C221.173 110.639 220.651 110.74 220.042 110.74ZM220.05 110.36C220.4 110.36 220.724 110.321 221.024 110.242C221.323 110.164 221.585 110.034 221.808 109.854C222.032 109.674 222.204 109.442 222.326 109.157C222.448 108.873 222.508 108.526 222.508 108.115V107.956C222.508 107.55 222.448 107.203 222.326 106.917C222.204 106.63 222.032 106.397 221.808 106.22C221.585 106.043 221.324 105.913 221.024 105.832C220.725 105.751 220.4 105.71 220.05 105.71C219.7 105.71 219.375 105.751 219.075 105.832C218.777 105.913 218.514 106.043 218.291 106.22C218.068 106.397 217.894 106.63 217.77 106.917C217.646 107.203 217.584 107.549 217.584 107.956V108.115C217.584 108.526 217.646 108.873 217.77 109.157C217.894 109.442 218.068 109.674 218.291 109.854C218.514 110.034 218.776 110.164 219.075 110.242C219.375 110.321 219.7 110.36 220.05 110.36Z" fill="#757875"/>
<path d="M227.852 110.741C227.339 110.741 226.912 110.661 226.568 110.501C226.227 110.341 225.967 110.096 225.793 109.766C225.617 109.437 225.53 109.023 225.53 108.526V105.428H225.957V108.655C225.957 109.214 226.121 109.637 226.451 109.926C226.781 110.215 227.247 110.359 227.852 110.359C228.459 110.359 228.932 110.215 229.267 109.926C229.602 109.637 229.77 109.214 229.77 108.655V105.428H230.195V108.526C230.195 109.023 230.107 109.437 229.929 109.766C229.752 110.096 229.489 110.341 229.141 110.501C228.793 110.661 228.364 110.741 227.852 110.741Z" fill="#757875"/>
<path d="M234.534 110.65V105.801H232.357V105.428H237.145V105.801H234.96V110.65H234.534Z" fill="#757875"/>
<path d="M239.777 105.428H239.352V110.65H239.777V105.428Z" fill="#757875"/>
<path d="M246.933 111.639L245.905 110.695C245.808 110.71 245.71 110.722 245.612 110.729C245.513 110.737 245.41 110.74 245.303 110.74C244.699 110.74 244.18 110.639 243.747 110.436C243.314 110.233 242.98 109.931 242.746 109.53C242.513 109.13 242.396 108.633 242.396 108.038C242.396 107.44 242.513 106.941 242.746 106.543C242.98 106.145 243.313 105.844 243.747 105.641C244.181 105.438 244.7 105.337 245.303 105.337C245.907 105.337 246.427 105.438 246.859 105.641C247.293 105.844 247.625 106.145 247.857 106.543C248.088 106.942 248.203 107.44 248.203 108.038C248.203 108.728 248.046 109.288 247.731 109.716C247.416 110.145 246.976 110.441 246.406 110.603L247.51 111.639H246.933V111.639ZM245.303 110.36C245.654 110.36 245.978 110.32 246.278 110.238C246.576 110.157 246.839 110.028 247.062 109.85C247.285 109.673 247.457 109.442 247.579 109.157C247.701 108.873 247.762 108.526 247.762 108.115V107.956C247.762 107.55 247.701 107.203 247.579 106.917C247.457 106.63 247.285 106.397 247.062 106.22C246.839 106.043 246.577 105.913 246.278 105.832C245.978 105.751 245.654 105.71 245.303 105.71C244.953 105.71 244.629 105.751 244.329 105.832C244.03 105.913 243.768 106.043 243.545 106.22C243.321 106.397 243.148 106.63 243.024 106.917C242.899 107.203 242.837 107.549 242.837 107.956V108.115C242.837 108.526 242.899 108.873 243.024 109.157C243.148 109.442 243.321 109.673 243.545 109.85C243.768 110.028 244.03 110.157 244.329 110.238C244.629 110.32 244.953 110.36 245.303 110.36Z" fill="#757875"/>
<path d="M253.106 110.741C252.593 110.741 252.165 110.661 251.822 110.501C251.481 110.341 251.221 110.096 251.047 109.766C250.871 109.437 250.784 109.023 250.784 108.526V105.428H251.21V108.655C251.21 109.214 251.375 109.637 251.705 109.926C252.035 110.215 252.501 110.359 253.106 110.359C253.713 110.359 254.186 110.215 254.521 109.926C254.856 109.637 255.024 109.214 255.024 108.655V105.428H255.449V108.526C255.449 109.023 255.361 109.437 255.183 109.766C255.006 110.096 254.743 110.341 254.395 110.501C254.047 110.661 253.617 110.741 253.106 110.741Z" fill="#757875"/>
<path d="M258.281 110.65V105.428H262.756V105.801H258.707V107.772H262.384V108.153H258.707V110.268H262.809V110.65H258.281Z" fill="#757875"/>
<path d="M38.2369 91.4378L52.6319 84.8439L38.2577 78.248H62.2777V71.165H5.8516L35.6262 84.8439L5.84863 98.5222H62.2777V91.4378H38.2369Z" fill="url(#paint0_linear_2453_240)"/>
<path d="M125.787 71.166H69.3613V78.2495H93.3808L79.0061 84.8439L93.4021 91.4387H69.3613V98.5222H125.79L96.0133 84.8439L125.787 71.166Z" fill="url(#paint1_linear_2453_240)"/>
<path d="M121.277 16.8438C121.174 16.8438 121.071 16.8472 120.966 16.8546C118.536 17.0243 116.706 19.1306 116.875 21.5598C116.895 21.8462 116.946 22.1221 117.018 22.3892C116.611 22.3372 116.192 22.3214 115.767 22.3511C112.297 22.5934 109.68 25.6028 109.923 29.0736C110.132 32.0597 112.393 34.4019 115.229 34.846L124.716 18.505C123.903 17.4882 122.656 16.8438 121.277 16.8438Z" fill="url(#paint2_linear_2453_240)"/>
<path d="M21.7154 29.0736C21.9583 25.6028 19.3411 22.5934 15.8713 22.3511C15.446 22.3214 15.0281 22.3372 14.6206 22.3892C14.6918 22.1221 14.7432 21.8462 14.7635 21.5598C14.9326 19.1306 13.1013 17.0243 10.6726 16.8546C10.5682 16.8472 10.4648 16.8438 10.3615 16.8438C8.98267 16.8438 7.7354 17.4882 6.92285 18.505L16.4084 34.846C19.2456 34.4019 21.5072 32.0597 21.7154 29.0736Z" fill="url(#paint3_linear_2453_240)"/>
<path d="M113.711 38.3042L113.702 38.2983C113.624 38.2449 113.543 38.1954 113.46 38.1484C113.439 38.1366 113.419 38.1237 113.398 38.1128C113.328 38.0747 113.255 38.0406 113.182 38.0075C113.146 37.9907 113.11 37.9739 113.074 37.9585C113.052 37.9496 113.031 37.9382 113.008 37.9293C98.1546 32.148 82.2829 29.2168 65.8341 29.2168C65.8054 29.2168 65.7777 29.2178 65.749 29.2178C65.7204 29.2178 65.6922 29.2168 65.6635 29.2168C49.2151 29.2168 33.3434 32.148 18.49 37.9293C18.4673 37.9382 18.4465 37.9496 18.4242 37.9585C18.3876 37.9739 18.352 37.9907 18.3159 38.0075C18.2427 38.0406 18.1705 38.0747 18.1003 38.1128C18.0795 38.1237 18.0593 38.1366 18.0385 38.1484C17.9549 38.1954 17.8733 38.2449 17.7952 38.2983L17.7873 38.3042C16.4925 39.1919 15.9272 40.8808 16.5212 42.4065C16.9213 43.4347 17.7601 44.1597 18.7393 44.4584C18.7511 44.4619 18.763 44.4649 18.7754 44.4683C18.8669 44.495 18.9593 44.5188 19.0528 44.5381C19.0785 44.5435 19.1052 44.547 19.131 44.5519C19.2121 44.5667 19.2947 44.5801 19.3772 44.589C19.4129 44.593 19.4494 44.5944 19.4851 44.5969C19.5597 44.6028 19.6349 44.6078 19.7106 44.6083C19.7531 44.6088 19.7956 44.6073 19.8392 44.6058C19.9084 44.6038 19.9776 44.6014 20.0479 44.5949C20.0973 44.5905 20.1473 44.5841 20.1972 44.5771C20.259 44.5692 20.3209 44.5608 20.3822 44.5489C20.4039 44.545 20.4247 44.5435 20.4455 44.5395C21.0315 44.4194 21.6349 44.3585 22.2402 44.3585C26.9785 44.3585 30.8336 48.0622 30.8336 52.6156C30.8336 54.7056 30.0146 56.7011 28.528 58.2357C28.5057 58.2589 28.4914 58.2861 28.4696 58.3089C28.3475 58.4424 28.2342 58.5824 28.1358 58.7317C28.0997 58.7856 28.069 58.8415 28.0369 58.8964C27.9577 59.0324 27.8845 59.1719 27.8247 59.3163C27.7965 59.3841 27.7738 59.4518 27.75 59.5206C27.7011 59.663 27.659 59.8079 27.6289 59.9558C27.615 60.024 27.6061 60.0918 27.5967 60.16C27.575 60.3128 27.5606 60.4666 27.5596 60.6224C27.5591 60.6887 27.5636 60.7525 27.5666 60.8183C27.575 60.9735 27.5893 61.1303 27.6195 61.2861C27.6323 61.3544 27.6511 61.4201 27.6684 61.4859C27.7001 61.6145 27.7396 61.7416 27.7876 61.8672C27.8203 61.9533 27.8559 62.0363 27.8959 62.1194C27.9577 62.25 28.025 62.3761 28.1007 62.4943C28.1387 62.5536 28.1773 62.6115 28.2194 62.6694C28.3296 62.8217 28.4483 62.9661 28.5799 63.0972C28.5898 63.1066 28.5952 63.1174 28.6046 63.1263C28.6254 63.1461 28.6491 63.159 28.6699 63.1778C28.8079 63.3064 28.9533 63.4231 29.1081 63.5264C29.1452 63.5512 29.1837 63.5714 29.2213 63.5947C29.3746 63.6877 29.5334 63.7712 29.6996 63.84C29.7352 63.8543 29.7718 63.8662 29.8084 63.879C29.9829 63.9448 30.161 63.9982 30.3445 64.0348C30.3647 64.0383 30.384 64.0408 30.4038 64.0442C31.0319 64.158 31.6971 64.1031 32.3316 63.8425C42.6935 59.5878 53.9366 57.4316 65.749 57.4316C77.5609 57.4316 88.8041 59.5883 99.1665 63.8425C99.8005 64.1031 100.466 64.1585 101.094 64.0442C101.114 64.0408 101.133 64.0383 101.153 64.0348C101.337 63.9982 101.515 63.9443 101.689 63.879C101.726 63.8662 101.762 63.8543 101.799 63.84C101.964 63.7712 102.123 63.6872 102.276 63.5947C102.314 63.5714 102.352 63.5512 102.389 63.5264C102.545 63.4231 102.69 63.3064 102.828 63.1778C102.849 63.1595 102.873 63.1466 102.893 63.1263C102.903 63.1174 102.908 63.1066 102.918 63.0972C103.049 62.9656 103.168 62.8212 103.279 62.6694C103.32 62.612 103.359 62.5541 103.397 62.4943C103.473 62.3761 103.54 62.25 103.602 62.1194C103.642 62.0363 103.678 61.9533 103.71 61.8672C103.758 61.7411 103.798 61.614 103.83 61.4859C103.847 61.4196 103.866 61.3539 103.879 61.2861C103.908 61.1303 103.923 60.9735 103.931 60.8183C103.934 60.7525 103.939 60.6887 103.938 60.6224C103.937 60.4671 103.923 60.3128 103.901 60.16C103.892 60.0918 103.883 60.024 103.869 59.9558C103.839 59.8079 103.797 59.663 103.748 59.5206C103.724 59.4518 103.702 59.3841 103.673 59.3163C103.614 59.1719 103.54 59.0324 103.461 58.8964C103.429 58.8415 103.398 58.7856 103.362 58.7317C103.264 58.5824 103.15 58.4424 103.028 58.3089C103.007 58.2861 102.992 58.2589 102.97 58.2357C101.483 56.7011 100.664 54.7056 100.664 52.6156C100.664 48.0622 104.519 44.3585 109.258 44.3585C109.863 44.3585 110.467 44.4194 111.053 44.5395C111.073 44.5435 111.094 44.545 111.115 44.5489C111.177 44.5608 111.239 44.5692 111.3 44.5771C111.351 44.5841 111.4 44.5905 111.45 44.5949C111.52 44.6014 111.59 44.6038 111.659 44.6058C111.702 44.6073 111.745 44.6088 111.788 44.6083C111.863 44.6078 111.938 44.6028 112.013 44.5969C112.049 44.5944 112.085 44.593 112.121 44.589C112.203 44.5801 112.286 44.5667 112.367 44.5519C112.393 44.547 112.419 44.5435 112.445 44.5381C112.539 44.5188 112.631 44.495 112.723 44.4683C112.735 44.4649 112.747 44.4619 112.758 44.4584C113.738 44.1597 114.576 43.4347 114.976 42.4065C115.57 40.8808 115.005 39.1919 113.711 38.3042ZM37.6119 54.6269C37.7014 53.9642 37.7499 53.2931 37.7499 52.6156C37.7499 47.808 35.4502 43.5188 31.8736 40.7364C39.7014 38.5278 47.7834 37.1123 56.0523 36.4941L40.963 44.1058L56.8535 50.9198C50.2334 51.5063 43.7998 52.7358 37.6119 54.6269ZM56.034 43.6399L65.8188 38.7048L75.6035 43.6399L65.8188 47.8357L56.034 43.6399ZM93.7477 52.6156C93.7477 53.2931 93.7966 53.9642 93.8861 54.6269C87.6978 52.7358 81.2642 51.5063 74.6446 50.9198L90.5356 44.1058L75.4457 36.4941C83.7147 37.1123 91.7967 38.5278 99.6245 40.7364C96.0478 43.5188 93.7477 47.808 93.7477 52.6156Z" fill="url(#paint4_linear_2453_240)"/>
<path d="M37.4363 28.5708C39.8713 28.5708 41.8452 26.5969 41.8452 24.1619C41.8452 21.7269 39.8713 19.7529 37.4363 19.7529C35.0013 19.7529 33.0273 21.7269 33.0273 24.1619C33.0273 26.5969 35.0013 28.5708 37.4363 28.5708Z" fill="url(#paint5_linear_2453_240)"/>
<path d="M94.2019 28.5708C96.6369 28.5708 98.6109 26.5969 98.6109 24.1619C98.6109 21.7269 96.6369 19.7529 94.2019 19.7529C91.7669 19.7529 89.793 21.7269 89.793 24.1619C89.793 26.5969 91.7669 28.5708 94.2019 28.5708Z" fill="url(#paint6_linear_2453_240)"/>
<path d="M59.5203 11.4876C59.5203 12.1127 59.639 12.7042 59.8091 13.2744C59.7112 13.2705 59.6187 13.2457 59.5203 13.2457C56.0411 13.2457 53.2217 16.0657 53.2217 19.5444C53.2217 23.0231 56.0411 25.843 59.5203 25.843C62.9985 25.843 65.8184 23.0231 65.8184 19.5444C65.8184 23.0231 68.6389 25.843 72.1176 25.843C75.5963 25.843 78.4162 23.0231 78.4162 19.5444C78.4162 16.0657 75.5963 13.2457 72.1176 13.2457C72.0182 13.2457 71.9262 13.2705 71.8288 13.2744C71.9984 12.7042 72.1176 12.1127 72.1176 11.4876C72.1176 8.00891 69.2976 5.18896 65.8184 5.18896C62.3403 5.18896 59.5203 8.00891 59.5203 11.4876Z" fill="url(#paint7_linear_2453_240)"/>
<defs>
<linearGradient id="paint0_linear_2453_240" x1="5.87678" y1="84.822" x2="125.819" y2="84.822" gradientUnits="userSpaceOnUse">
<stop stop-color="#93999D"/>
<stop offset="0.5" stop-color="#D2D4D5"/>
<stop offset="1" stop-color="#93999D"/>
</linearGradient>
<linearGradient id="paint1_linear_2453_240" x1="5.87696" y1="84.8219" x2="125.82" y2="84.8219" gradientUnits="userSpaceOnUse">
<stop stop-color="#93999D"/>
<stop offset="0.5" stop-color="#D2D4D5"/>
<stop offset="1" stop-color="#93999D"/>
</linearGradient>
<linearGradient id="paint2_linear_2453_240" x1="6.88884" y1="25.9382" x2="124.68" y2="25.9382" gradientUnits="userSpaceOnUse">
<stop stop-color="#93999D"/>
<stop offset="0.5" stop-color="#D2D4D5"/>
<stop offset="1" stop-color="#93999D"/>
</linearGradient>
<linearGradient id="paint3_linear_2453_240" x1="6.88848" y1="25.9382" x2="124.68" y2="25.9382" gradientUnits="userSpaceOnUse">
<stop stop-color="#93999D"/>
<stop offset="0.5" stop-color="#D2D4D5"/>
<stop offset="1" stop-color="#93999D"/>
</linearGradient>
<linearGradient id="paint4_linear_2453_240" x1="6.88804" y1="46.6343" x2="124.68" y2="46.6343" gradientUnits="userSpaceOnUse">
<stop stop-color="#93999D"/>
<stop offset="0.5" stop-color="#D2D4D5"/>
<stop offset="1" stop-color="#93999D"/>
</linearGradient>
<linearGradient id="paint5_linear_2453_240" x1="6.88847" y1="24.2064" x2="124.68" y2="24.2064" gradientUnits="userSpaceOnUse">
<stop stop-color="#93999D"/>
<stop offset="0.5" stop-color="#D2D4D5"/>
<stop offset="1" stop-color="#93999D"/>
</linearGradient>
<linearGradient id="paint6_linear_2453_240" x1="6.88876" y1="24.2064" x2="124.68" y2="24.2064" gradientUnits="userSpaceOnUse">
<stop stop-color="#93999D"/>
<stop offset="0.5" stop-color="#D2D4D5"/>
<stop offset="1" stop-color="#93999D"/>
</linearGradient>
<linearGradient id="paint7_linear_2453_240" x1="6.8882" y1="15.5841" x2="124.68" y2="15.5841" gradientUnits="userSpaceOnUse">
<stop stop-color="#93999D"/>
<stop offset="0.5" stop-color="#D2D4D5"/>
<stop offset="1" stop-color="#93999D"/>
</linearGradient>
</defs>
</svg>
